<?xml version="1.0" encoding="UTF-8"?>
<svg xmlns="http://www.w3.org/2000/svg" xmlns:xlink="http://www.w3.org/1999/xlink" width="20pt" height="20pt" viewBox="0 0 20 20" version="1.1">
<g id="surface1">
<path style=" stroke:none;fill-rule:evenodd;fill:rgb(94.117647%,78.823529%,0%);fill-opacity:1;" d="M 10 20 C 4.476562 20 0 15.523438 0 10 C 0 4.476562 4.476562 0 10 0 C 15.523438 0 20 4.476562 20 10 C 20 15.523438 15.523438 20 10 20 Z M 10 20 "/>
<path style=" stroke:none;fill-rule:evenodd;fill:rgb(0%,52.941176%,32.941176%);fill-opacity:1;" d="M 19.554688 10 C 19.554688 4.636719 15.179688 0.445312 10 0.445312 C 4.816406 0.445312 0.445312 4.636719 0.445312 10 C 0.445312 15.363281 4.816406 19.554688 10 19.554688 C 15.179688 19.554688 19.554688 15.363281 19.554688 10 Z M 16.890625 10 C 16.890625 13.804688 13.804688 16.890625 10 16.890625 C 6.195312 16.890625 3.109375 13.804688 3.109375 10 C 3.109375 6.195312 6.195312 3.109375 10 3.109375 C 13.804688 3.109375 16.890625 6.195312 16.890625 10 Z M 16.890625 10 "/>
<path style=" stroke:none;fill-rule:nonzero;fill:rgb(0%,52.941176%,32.941176%);fill-opacity:1;" d="M 6.292969 5.554688 C 6.253906 5.554688 6.222656 5.585938 6.222656 5.625 L 6.222656 14.375 C 6.222656 14.414062 6.253906 14.445312 6.292969 14.445312 L 8.152344 14.445312 C 8.191406 14.445312 8.222656 14.414062 8.222656 14.375 L 8.222656 11 L 11.777344 11 L 11.777344 14.375 C 11.777344 14.414062 11.808594 14.445312 11.847656 14.445312 L 13.707031 14.445312 C 13.746094 14.445312 13.777344 14.414062 13.777344 14.375 L 13.777344 5.625 C 13.777344 5.585938 13.746094 5.554688 13.707031 5.554688 L 11.847656 5.554688 C 11.808594 5.554688 11.777344 5.585938 11.777344 5.625 L 11.777344 9 L 8.222656 9 L 8.222656 5.625 C 8.222656 5.585938 8.191406 5.554688 8.152344 5.554688 Z M 6.292969 5.554688 "/>
</g>
</svg>
